<svg xmlns="http://www.w3.org/2000/svg" width="706.512" height="114.115" xmlns:v="https://vecta.io/nano"><path d="M0 32.718l5.227.057 12.21-.013c.725-.005.944.2.933.934l-.015 8.603.24.106.568-.754c2.77-4.122 6.235-7.455 11.036-9.025 8.856-2.9 18.35.068 22.486 11.125a39.22 39.22 0 0 1 2.073 16.676c-.216 5.535-1.72 10.943-4.395 15.793C46.222 83.288 40 86.66 31.788 85.934c-4.544-.446-8.79-2.46-12-5.7-.37-.394-.717-.81-1.038-1.244l-.316.178v24.75H9.147c-.022-.253-.063-.5-.063-.742q.027-29.316.044-58.632a26.89 26.89 0 0 0-.348-4.428c-.15-2.202-1.898-3.958-4.1-4.12a30.17 30.17 0 0 0-3.648-.416c-.637-.04-.836-.266-.842-.873-.033-.6-.096-1.198-.2-1.792zm18.356 27.72l.03 14.048c.03.52.268 1.003.66 1.344 3.376 2.682 7.386 4.447 11.644 5.127a10.4 10.4 0 0 0 9.053-2.633c1.92-1.937 3.27-4.365 3.9-7.018a44.39 44.39 0 0 0 .694-20.023c-.534-3.453-1.818-6.747-3.76-9.65-2.753-3.92-6.5-5.356-11.047-4.07A20.07 20.07 0 0 0 18.635 45.5c-.2.36-.293.77-.265 1.18l-.014 13.758z" fill="#0065ff"/><path d="M272.003 11.767V8.9h18.344v33.38l3.668-4.37c5.745-5.877 12.67-7.75 20.55-5.54 5.006 1.4 8.228 5.03 10.537 9.526a30.18 30.18 0 0 1 3.06 12.005 40.91 40.91 0 0 1-2.466 18.256c-1.934 4.786-4.845 8.838-9.392 11.47a20.9 20.9 0 0 1-23.758-2.474c-.632-.552-1.2-1.166-1.84-1.718a1.21 1.21 0 0 0-.742-.308c-.107 0-.256.4-.3.63l-1 5.127c-.056.264-.362.677-.56.68-2.382.047-4.766.03-7.277.03V84.47q0-31.748-.02-63.5a59.5 59.5 0 0 0-.458-6.058 2.36 2.36 0 0 0-2.022-2.188c-1.736-.335-3.487-.584-5.234-.86-.346-.056-.7-.072-1.1-.104zm18.375 48.76l.018 14.052c-.006.394.147.774.425 1.054a26.18 26.18 0 0 0 11.368 5.11c6.87 1.067 11.822-1.58 14.2-8.223 1.125-3.37 1.706-6.9 1.723-10.453a49.03 49.03 0 0 0-1.324-14.4c-.6-2.826-2.04-5.4-4.1-7.428-3.052-2.743-6.7-3.1-10.537-2.37-4.6.874-8.088 3.534-11.073 6.994a2.79 2.79 0 0 0-.716 2l.017 13.664zM378.22 81.6l.082 1.05c.2 2.5.212 2.572-2.268 3.063a18.2 18.2 0 0 1-4.5.419c-3.905-.225-6.14-2.635-7.407-6.125-.24-.663-.416-1.35-.653-2.134l-3 2.607a24.33 24.33 0 0 1-10.961 5.467c-6.763 1.262-13.6-1.76-16.663-7.375a15.29 15.29 0 0 1 5.918-20.5 27.78 27.78 0 0 1 11.309-3.423c3.33-.343 6.687-.407 10.034-.588.378-.02.757 0 1.253 0-.135-4.412.414-8.75-.943-12.962a7.97 7.97 0 0 0-8.4-5.914 19.05 19.05 0 0 0-4.81.816c-3.566 1.13-5.322 3.765-5.617 7.435l-.134 1.97H335V44.2l.023-7.56a1.25 1.25 0 0 1 .5-.96c6.625-2.863 13.483-4.617 20.773-4.1 2.848.12 5.63.9 8.12 2.286 3.646 2.143 5.45 5.482 6.04 9.54a35.57 35.57 0 0 1 .338 4.916l.044 22.482a46.34 46.34 0 0 0 .663 7.391c.14 2.045 1.815 3.647 3.865 3.693.952-.012 1.9-.1 2.836-.3zm-16.86-24.625c-4.52-.023-8.877.13-12.96 2.048-5.1 2.4-7.434 6.272-7.22 11.892a10.18 10.18 0 0 0 3.703 7.383c2.223 1.828 5.112 2.63 7.957 2.2a21.4 21.4 0 0 0 7.872-3.322c.453-.243.714-.737.66-1.25l-.013-18.96zm139.266-11.532h-6.358l-.073-.763.02-8.045c.01-.38.196-.73.5-.957 6.626-2.868 13.488-4.652 20.772-4.062a23.58 23.58 0 0 1 5.75 1.2c5.053 1.752 7.652 5.57 8.4 10.733a27.19 27.19 0 0 1 .23 3.857l.04 23.845c.016 2.257.244 4.507.682 6.72.673 3.3 2.588 4.413 5.882 3.728a29.94 29.94 0 0 1 .86-.166c.095 1.062.2 2.07.258 3.085-.03.23-.175.43-.385.533a14.82 14.82 0 0 1-7.894.8c-2.944-.653-4.722-2.637-5.813-5.323-.35-.862-.593-1.77-.92-2.76-.98.86-1.912 1.725-2.893 2.53-3.26 2.68-6.8 4.867-11.044 5.512-6.55 1-12.1-.795-16.048-6.37a15.14 15.14 0 0 1-1.962-12.06c1.068-4.117 3.82-7.595 7.582-9.582a28.08 28.08 0 0 1 10.977-3.233c3.4-.342 6.82-.407 10.23-.6.284-.016.57 0 .8 0 .086-.127.152-.18.15-.23-.066-3.353.043-6.723-.263-10.056-.3-3.25-1.525-6.194-4.72-7.736a10.79 10.79 0 0 0-8.48-.265c-4.854 1.7-5.94 4.1-6.293 8.993-.01.18.001.367.001.66zm19.746 11.533c-4.108-.027-8.126.094-11.934 1.653-5.16 2.115-8.093 5.75-8.16 11.573a10.28 10.28 0 0 0 11.747 10.3c2.75-.575 5.365-1.674 7.7-3.237a1.34 1.34 0 0 0 .7-1.331l-.016-17.92c.008-.3-.02-.622-.038-1.038zM466.7 54.018c-.2-4.386.492-8.765-.95-13a8.14 8.14 0 0 0-8.357-5.872c-2.164-.02-4.302.484-6.228 1.47a7.49 7.49 0 0 0-4.069 5.982c-.136.918-.2 1.846-.3 2.825h-6.245c-.045-.207-.075-.416-.1-.627l.022-8.24a1.21 1.21 0 0 1 .566-.917 46.2 46.2 0 0 1 15.848-4.067 28.42 28.42 0 0 1 9.03.725 12.83 12.83 0 0 1 10.04 11.95 55.38 55.38 0 0 1 .182 4.347l.084 25.007c.037 1.482.225 2.956.562 4.4.68 3.12 2.506 4.286 5.653 3.757.316-.053.63-.128 1.127-.23l.3 3.485c-3.178 1.04-6.344 1.838-9.578.54-3.386-1.36-4.585-4.4-5.442-7.636-1.488 1.236-2.874 2.48-4.355 3.6a21.3 21.3 0 0 1-11.4 4.646c-8.58.62-15.22-4.854-16.4-11.912-1.18-7.1 1.795-13.625 9.116-17.053a32.61 32.61 0 0 1 11.224-2.738c2.92-.245 5.86-.266 8.792-.388l.867-.054zm-.02 2.953c-4.373 0-8.617.1-12.6 1.907-4.934 2.228-7.6 5.928-7.57 11.5a10.22 10.22 0 0 0 11.739 10.121 21.15 21.15 0 0 0 7.625-3.185c.55-.268.877-.846.824-1.455l-.017-17.835z" fill="#253858"/><path d="M84.287 85.964c-12.325.11-21.733-7.568-24.32-19.853-1.778-8.445-.835-16.527 3.89-23.887 4.035-6.282 9.946-9.673 17.36-10.446a25.03 25.03 0 0 1 15.764 3.106c6 3.548 9.525 8.96 11.215 15.6 2.133 8.38 1.342 16.478-3.04 24.013a22.32 22.32 0 0 1-17.206 11.321 10.24 10.24 0 0 1-1.053.143c-.87.016-1.742.003-2.613.003zm15.266-28.17c-.138-1.318-.283-3.672-.65-6-.582-4.563-2.33-8.9-5.07-12.592-4.3-5.532-11.343-6.6-16.7-2.46a17.5 17.5 0 0 0-5.414 7.54 39.66 39.66 0 0 0-1.865 23.079c.726 4.315 2.574 8.364 5.357 11.74 3.723 4.54 10.246 5.596 15.21 2.46a16.1 16.1 0 0 0 5.549-6.459C98.587 70 99.425 64.5 99.553 57.793z" fill="#0065ff"/><path d="M397.996 81.444h34.228v3.533H386.63c-.028-1.556-.1-2.935.93-4.372q16-22.1 31.842-44.3l.456-.676h-1.182c-6.558 0-13.115-.01-19.672.023-1.315.007-2.63.193-3.946.293a1.71 1.71 0 0 0-1.68 1.582 23.83 23.83 0 0 0-.23 2.887c-.037 1.185-.01 2.373-.01 3.614h-5.133V32.705h42.882a5.89 5.89 0 0 1-1.021 4.442q-15.72 21.7-31.284 43.517c-.147.204-.303.402-.587.78zm142.97-46.064v-2.66h18.37v9.467c4.817-7.365 10.987-11.853 20.307-10.34V46.23h-5.186c-.186-1.433-.32-2.9-.576-4.346-.4-2.323-.776-2.62-3.138-2.576-4.28.08-7.4 2.26-9.97 5.5a6.41 6.41 0 0 0-1.452 4.327l.056 23.256c.01 1.93.2 3.86.353 5.784-.013 1.666 1.25 3.066 2.908 3.225 1.684.252 3.384.4 5.08.577.57.06 1.142.068 1.744.1v2.9h-28.53c-.034-.83-.02-1.663.04-2.493.022-.2.513-.45.817-.5 1.6-.238 3.2-.382 4.787-.626a3.17 3.17 0 0 0 2.979-3.132c.136-1.8.337-3.6.344-5.4q.05-14-.006-28c-.01-1.992-.254-3.986-.46-5.97a2.5 2.5 0 0 0-2.111-2.348c-2.072-.42-4.164-.752-6.352-1.138z" fill="#253858"/><path d="M108.66 11.56V9l1-.05 15.986-.025c.948-.008 1.108.328 1.1 1.17q.014 17.487.084 34.976.054 19.182.107 38.366c0 1.43 0 1.43-1.418 1.433h-8.614l-.054-1 .13-21.12.205-15.1.276-28.28a16.92 16.92 0 0 0-.4-3.548 4.19 4.19 0 0 0-3.384-3.453c-1.634-.355-3.3-.533-5.028-.8zm155.124 21.217L260.75 38.6q-7.8 17.054-15.533 34.144l-11.27 24.834c-1.384 3.015-3.348 5.493-6.933 5.965a30.99 30.99 0 0 1-4.156.22l-8.234-.17c-.576-.015-1.152-.092-1.707-.138-.36-1.5-.252-1.7 1.15-1.646l5.412.272a16.48 16.48 0 0 0 8.473-1.494 7.34 7.34 0 0 0 3.736-3.637l2.928-7.458 1.48-3.673c.285-.535.294-1.175.023-1.718q-8.156-19.484-16.28-38.98l-2.132-5.08a7.16 7.16 0 0 0-5.957-4.51c-.2-.02-.37-.385-.54-.6-.032-.04-.007-.127-.006-.2.035-2.4-.295-1.945 1.905-1.96l14.478-.008-.014 3.35a12.87 12.87 0 0 0 1.2 6.007q6.383 15.2 12.715 30.4l.443.963a3.87 3.87 0 0 0 .387-.542l12.94-29.372c1.38-3.218 2.3-6.63 3.383-9.972.044-.28.2-.53.433-.693a1.04 1.04 0 0 1 .8-.168c1.276.054 2.555.016 3.913.016zm-57.9 46.553l-.023 3.217a1.03 1.03 0 0 1-.488.766c-7.2 2.7-14.554 3.862-22.065 1.6-7.743-2.328-12.868-7.617-15.6-15.108-3.477-9.56-2.966-18.924 2.52-27.657 3.96-6.3 9.942-9.567 17.3-10.364 6.043-.655 11.87.658 17.7 1.962.5.115.655.4.654.887q-.02 5.378 0 10.756c0 .63-.226.853-.854.836-1.292-.036-2.585-.05-3.875.005-.753.03-.974-.206-1.035-.974a23.27 23.27 0 0 0-.64-4.2c-1.354-5.04-4.722-6.82-9.76-6.54-5.587.312-9.18 3.5-11.582 8.3a29 29 0 0 0-2.75 10.6c-.503 5.38.107 10.803 1.794 15.935 2.138 6.5 6.4 10.723 13.256 12a26.28 26.28 0 0 0 14.241-1.559l1.208-.453zM139.666 35.5v-2.642h18.06l.454 51.936h-10v-2.36q.1-11.092.212-22.188l.127-16.666a18.6 18.6 0 0 0-.329-3.459c-.473-2.52-1.7-3.672-4.2-4.136l-2.1-.3-2.232-.175zm18.062-21.657V22.9h-9.093v-9.054zm548.784 43.214c-.001 31.512-25.546 57.056-57.058 57.056s-57.057-25.546-57.056-57.057S617.943-.001 649.455-.001s57.057 25.546 57.057 57.058z" fill="#0065ff"/><path d="M628.926 71.576l3.86-1.033c.667 2.397.443 4.955-.632 7.2a9.69 9.69 0 0 1-5.2 4.647 10.22 10.22 0 0 1-8.476.04q-3.957-1.822-6.228-7.33a16.57 16.57 0 0 1-1.387-6.72 8.91 8.91 0 0 1 1.943-5.488 11.54 11.54 0 0 1 4.7-3.5 9.88 9.88 0 0 1 6.608-.6c2.106.652 3.9 2.056 5.04 3.944l-3.392 2.052c-.763-1.183-1.888-2.088-3.207-2.58a5.13 5.13 0 0 0-3.641.19 6.26 6.26 0 0 0-3.745 3.905q-.93 2.743.872 7.115 1.824 4.432 4.35 5.74a5.98 5.98 0 0 0 5.26.184c1.367-.514 2.482-1.538 3.112-2.856.627-1.567.685-3.304.164-4.9zm4.254-5.193q-2.514-6.108-.33-10.45a11.07 11.07 0 0 1 5.912-5.293 10.67 10.67 0 0 1 8.638-.081q4.1 1.788 6.26 7.027a15.75 15.75 0 0 1 1.479 7.2 9.76 9.76 0 0 1-2.152 5.307c-1.256 1.567-2.895 2.784-4.76 3.533-2.748 1.266-5.905 1.307-8.685.113q-4.068-1.785-6.363-7.356zm3.832-1.578q1.74 4.227 4.45 5.57a6.64 6.64 0 0 0 9.254-3.824q.973-2.87-.8-7.2-1.68-4.08-4.4-5.42c-1.715-.855-3.716-.927-5.488-.2s-3.145 2.186-3.764 4q-.98 2.848.758 7.074zm25.676 2.295l-9.057-22 3.335-1.373 1.27 3.087a8.46 8.46 0 0 1 1.684-3.734c.92-1.162 2.13-2.06 3.5-2.6a7.84 7.84 0 0 1 4.425-.636 5.88 5.88 0 0 1 3.374 1.93 8.55 8.55 0 0 1 5.207-6.65 7.24 7.24 0 0 1 5.78-.26q2.508 1.1 4.06 4.857l6.217 15.1-3.707 1.526-5.706-13.856a11.03 11.03 0 0 0-1.689-3.071 3.37 3.37 0 0 0-1.968-1.042 4.42 4.42 0 0 0-2.484.32 5.63 5.63 0 0 0-3.217 3.129q-.9 2.175.5 5.57l5.262 12.78-3.728 1.535-5.886-14.3a6.8 6.8 0 0 0-2.445-3.352 3.73 3.73 0 0 0-3.494-.015c-1.032.418-1.923 1.12-2.57 2.027a5.08 5.08 0 0 0-.938 3.221 14.73 14.73 0 0 0 1.293 4.845l4.7 11.412z" fill="#fff"/></svg>